<svg width="200" height="200" viewBox="0 0 200 200" fill="none" xmlns="http://www.w3.org/2000/svg">
  <g clip-path="url(#clip0_12_31)">
  <path d="M185 100C185 146.944 146.944 185 100 185C53.0558 185 15 146.944 15 100C15 53.0558 53.0558 15 100 15C146.944 15 185 53.0558 185 100Z" fill="url(#paint0_linear_12_31)" stroke="#F4FAFF" stroke-width="10"/>
  <path d="M163.303 157.343C132.215 177.385 80.8258 155.542 87.7612 124.199C93.8416 96.7204 126.484 104.618 133.908 108.326C141.333 112.034 136.84 92.338 119.622 86.4262C96.3 78.4178 67.7525 80.1157 58.7286 120.343C52.5619 147.834 64.1226 184.986 110.5 185.5C154.982 175.111 163.303 157.343 163.303 157.343Z" fill="#004289"/>
  <path d="M171 154C171 145.15 162.629 151.439 157.506 156.45C145.198 168.488 127.076 172.996 102.837 168.249C60.6978 160.001 60.3237 110.455 89.1344 96.3214C104.72 88.6754 123.211 97.7277 130.241 103.147C136.359 107.861 148.059 114.117 147.446 106.248C146.139 89.4961 113.41 53.6209 69.5573 76.3033C25.7082 98.9856 27.5 139.721 27.5 149L47 166C47 175.11 65.4186 184 74.5 184L99 188C108.081 188 156 176.61 156 167.5C156 167.5 159.5 164 171 154Z" fill="#F4FAFF"/>
  </g>
  <defs>
  <linearGradient id="paint0_linear_12_31" x1="100" y1="10" x2="100" y2="190" gradientUnits="userSpaceOnUse">
  <stop stop-color="#007BFF"/>
  <stop offset="1" stop-color="#0C4889"/>
  </linearGradient>
  <clipPath id="clip0_12_31">
  <rect width="200" height="200" fill="white"/>
  </clipPath>
  </defs>
  </svg>
  